<?xml version="1.0" standalone="no"?>
<!DOCTYPE svg PUBLIC "-//W3C//DTD SVG 1.1//EN" "http://www.w3.org/Graphics/SVG/1.1/DTD/svg11.dtd" >
<svg xmlns="http://www.w3.org/2000/svg">
<metadata>
This is a custom SVG webfont generated by Font Squirrel.
Copyright   : Copyright c 2008 by Stefan Gandl All rights reserved
Designer    : Stefan Gandl
Foundry     : Stefan Gandl
Foundry URL : wwwneubauladencom
</metadata>
<defs>
<font id="webfontVzpfvyFV" horiz-adv-x="1177" >
<font-face units-per-em="2048" ascent="1638" descent="-410" />
<missing-glyph horiz-adv-x="614" />
<glyph unicode=" "  horiz-adv-x="614" />
<glyph unicode="&#x09;" horiz-adv-x="614" />
<glyph unicode="&#xa0;" horiz-adv-x="614" />
<glyph unicode="!" horiz-adv-x="575" d="M422 391h-268v1051h268v-1051zM422 0h-268v330h268v-330z" />
<glyph unicode="&#x22;" horiz-adv-x="835" d="M723 1047h-268v395h268v-395zM381 1047h-268v395h268v-395z" />
<glyph unicode="#" horiz-adv-x="1165" d="M1108 195h-129v-195h-270v195h-244v-195h-268v195h-140v270h140v512h-140v268h140v197h268v-197h244v197h270v-197h129v-268h-129v-512h129v-270zM709 465v512h-244v-512h244z" />
<glyph unicode="$" horiz-adv-x="1165" d="M1108 428q0 -168 -112.5 -292t-278.5 -136v-197h-268v197q-129 8 -228.5 88t-140.5 199l254 86q16 -47 55 -76t86 -29h213q61 0 106.5 46t45.5 114q0 63 -58.5 100t-144.5 48.5t-188.5 36t-188.5 58.5t-144.5 122t-58.5 221q0 168 113 292t279 134v196h268v-196 q127 -8 226 -87t140 -198l-254 -88q-14 47 -54 75.5t-87 28.5h-213q-59 0 -104 -45t-45 -112q0 -63 58 -100t144 -48.5t188.5 -36t188.5 -58.5t144.5 -122t58.5 -221z" />
<glyph unicode="%" horiz-adv-x="1556" d="M1485 526v-172q0 -145 -104.5 -249.5t-250.5 -104.5h-14q-147 0 -250.5 104.5t-103.5 249.5v172q0 145 103.5 249t250.5 104h14q145 0 250 -104t105 -249zM1217 1442l-848 -1442h-29l848 1442h29zM795 1087v-172q0 -145 -103.5 -249.5t-251.5 -104.5h-14 q-147 0 -250.5 104.5t-103.5 249.5v172q0 145 103.5 250t250.5 105h14q147 0 251 -105t104 -250zM1217 354v172q0 35 -26 59.5t-61 24.5h-14q-35 0 -60.5 -24.5t-25.5 -59.5v-172q0 -35 25.5 -60.5t60.5 -25.5h14q35 0 61 25.5t26 60.5zM526 915v172q0 35 -25.5 61t-60.5 26 h-14q-35 0 -60.5 -26t-25.5 -61v-172q0 -35 25.5 -59.5t60.5 -24.5h14q35 0 60.5 24.5t25.5 59.5z" />
<glyph unicode="&#x26;" horiz-adv-x="1515" d="M1618 0h-451l-188 141q-131 -141 -317 -141h-132q-178 0 -303 126t-125 302q0 170 115 291q-115 121 -115 295q0 176 125 302t303 126q176 0 301 -126t125 -302q0 -115 -56 -213.5t-150 -153.5l165 -123l183 271l223 -150l-188 -283zM688 1014q0 66 -46 113t-111.5 47 t-112.5 -47.5t-47 -112.5q0 -57 25.5 -91t76.5 -71h23q74 0 133 40t59 122zM760 303l-332 246q-57 -47 -57 -121q0 -66 47 -113t112 -47h132q57 0 98 35z" />
<glyph unicode="'" horiz-adv-x="493" d="M381 1047h-268v395h268v-395z" />
<glyph unicode="(" horiz-adv-x="749" d="M678 0q-217 0 -370.5 153.5t-153.5 370.5v391q0 217 153.5 372t370.5 155v-268q-106 0 -181 -76t-75 -183v-391q0 -106 74.5 -181t181.5 -75v-268z" />
<glyph unicode=")" horiz-adv-x="749" d="M72 0v268q106 0 181 75t75 181v391q0 106 -75 182.5t-181 76.5v268q217 0 370.5 -154.5t153.5 -372.5v-391q0 -217 -153.5 -370.5t-370.5 -153.5z" />
<glyph unicode="*" horiz-adv-x="772" d="M741 1085l-137 -45l84 -116l-217 -158l-86 117l-84 -117l-217 158l84 116l-137 45l84 256l137 -45v146h268v-146l137 45z" />
<glyph unicode="+" horiz-adv-x="1132" d="M1092 391h-392v-391h-268v391h-391v268h391v392h268v-392h392v-268z" />
<glyph unicode="," horiz-adv-x="493" d="M381 330v-330q0 -109 -78 -185.5t-190 -76.5v133q57 0 96 38t39 91h-135v330h268z" />
<glyph unicode="-" horiz-adv-x="706" d="M614 391h-522v268h522v-268z" />
<glyph unicode="." horiz-adv-x="493" d="M381 0h-268v330h268v-330z" />
<glyph unicode="/" horiz-adv-x="720" d="M711 1442l-420 -1442h-281l420 1442h281z" />
<glyph unicode="0" d="M1065 965v-488q0 -199 -139.5 -338t-335.5 -139q-199 0 -338 139.5t-139 337.5v488q0 199 139 338t338 139q197 0 336 -139t139 -338zM797 477v488q0 86 -61.5 147.5t-145.5 61.5q-86 0 -147.5 -61.5t-61.5 -147.5v-488q0 -86 61.5 -147.5t147.5 -61.5q84 0 145.5 61.5 t61.5 147.5z" />
<glyph unicode="1" horiz-adv-x="763" d="M610 0h-268v1174h-342v268h610v-1442z" />
<glyph unicode="2" d="M1055 0h-953v268l633 631q51 51 51 115q0 66 -47 113t-112 47h-97q-51 0 -92 -30t-57 -77l-254 90q43 125 153.5 205t249.5 80h97q178 0 303 -126t125 -302t-117 -293l-455 -453h572v-268z" />
<glyph unicode="3" d="M1020 428q0 -176 -125 -302t-301 -126h-98q-135 0 -246 79t-158 206l254 90q16 -47 57 -77t93 -30h98q66 0 112 47t46 113q0 63 -46.5 110.5t-111.5 47.5h-98v268h98q66 0 112 47t46 112.5t-46.5 113t-111.5 47.5h-98q-51 0 -92.5 -30t-57.5 -77l-254 88 q45 129 156.5 208t247.5 79h98q176 0 301 -126t125 -302q0 -168 -115 -293q115 -125 115 -293z" />
<glyph unicode="4" d="M1020 0h-270v391h-678v268l327 783h289l-328 -783h390v392h270v-1051z" />
<glyph unicode="5" d="M1075 428q0 -176 -125 -302t-303 -126h-96q-135 0 -245.5 79t-158.5 206l254 90q16 -47 57.5 -77t92.5 -30h96q66 0 113 47t47 113t-47 112t-113 46h-524v856h952v-268h-684v-320h256q178 0 303 -125t125 -301z" />
<glyph unicode="6" d="M1071 573v-96q0 -199 -139 -338t-336 -139q-199 0 -338 139.5t-139 337.5v488q0 199 139 338t338 139q137 0 254 -74t176 -201l-242 -114q-27 53 -78 87t-110 34q-76 0 -133 -48.5t-72 -119.5q100 45 205 45q197 0 336 -139.5t139 -338.5zM803 477v96q0 86 -61.5 147.5 t-145.5 61.5q-86 0 -147.5 -61.5t-61.5 -147.5v-96q0 -86 61.5 -147.5t147.5 -61.5q84 0 145.5 61.5t61.5 147.5z" />
<glyph unicode="7" d="M1047 1174l-492 -1174h-289l492 1174h-656v268h945v-268z" />
<glyph unicode="8" d="M1065 428q0 -176 -125 -302t-303 -126h-96q-176 0 -302 126t-126 302q0 170 116 293q-117 123 -116 293q0 176 126 302t302 126h96q178 0 303 -126t125 -302q0 -170 -117 -293q117 -123 117 -293zM797 1013.5q0 65.5 -47.5 113t-112.5 47.5h-96q-66 0 -113 -47.5 t-47 -113t47 -112.5t113 -47h96q66 0 113 47t47 112.5zM797 428q0 66 -47.5 112t-112.5 46h-96q-66 0 -113 -46t-47 -112t47 -113t113 -47h96q66 0 113 47t47 113z" />
<glyph unicode="9" d="M1055 965v-488q0 -199 -139.5 -338t-335.5 -139q-139 0 -256 73.5t-177 198.5l244 117q27 -55 77 -88t112 -33q74 0 131 48.5t71 119.5q-92 -45 -202 -45q-199 0 -338.5 139.5t-139.5 335.5v99q0 199 139.5 338t338.5 139q197 0 336 -139t139 -338zM786 866v99 q0 86 -61 147.5t-145 61.5q-86 0 -147.5 -61.5t-61.5 -147.5v-99q0 -84 61.5 -145.5t147.5 -61.5q84 0 145 61.5t61 145.5z" />
<glyph unicode=":" horiz-adv-x="493" d="M381 723h-268v330h268v-330zM381 0h-268v330h268v-330z" />
<glyph unicode=";" horiz-adv-x="493" d="M381 391h-268v330h268v-330zM381 330v-330q0 -109 -78 -185.5t-190 -76.5v133q57 0 96 38t39 91h-135v330h268z" />
<glyph unicode="&#x3c;" horiz-adv-x="1064" d="M891 0l-717 408v233l717 408v-308l-379 -217l379 -217v-307z" />
<glyph unicode="=" horiz-adv-x="1136" d="M1044 580h-952v270h952v-270zM1044 190h-952v269h952v-269z" />
<glyph unicode="&#x3e;" horiz-adv-x="1064" d="M891 408l-717 -408v307l381 217l-381 217v308l717 -408v-233z" />
<glyph unicode="?" horiz-adv-x="999" d="M928 1010q0 -152 -96.5 -270.5t-245.5 -147.5v-205h-269v465h185q63 0 110 47t47 111q0 66 -46 112.5t-111 46.5h-99q-51 0 -92 -29.5t-57 -76.5l-254 90q45 127 156.5 206t246.5 79h99q176 0 301 -125t125 -303zM586 -2h-269v330h269v-330z" />
<glyph unicode="@" horiz-adv-x="1232" d="M1118 938v-328q0 -74 -51 -125t-125 -51q-90 0 -139 70q-82 -70 -187 -70q-119 0 -202.5 83t-83.5 202t84 203t202 84q80 0 150 -43v43h135v-396q0 -16 12.5 -28.5t28.5 -12.5t28.5 12.5t12.5 28.5v328q0 152 -107.5 259.5t-259 107.5t-260 -107.5t-108.5 -259.5v-436 q0 -152 108.5 -259.5t259.5 -107.5q100 0 185.5 51.5t134.5 135.5l119 -68q-68 -117 -183.5 -186.5t-255.5 -69.5q-209 0 -356 148.5t-147 355.5v436q0 207 147.5 354.5t355.5 147.5q207 0 354.5 -147.5t147.5 -354.5zM766 719q0 63 -44 107t-106 44q-63 0 -106 -44 t-43 -107q0 -61 43 -105.5t106 -44.5q61 0 105.5 44.5t44.5 105.5z" />
<glyph unicode="A" horiz-adv-x="1267" d="M1257 0h-284l-99 293h-483l-98 -293h-283l482 1442h282zM786 561l-153 457l-152 -457h305z" />
<glyph unicode="B" horiz-adv-x="1296" d="M1204 428q0 -176 -121.5 -302t-298.5 -126h-630v1442h630q176 0 298 -127t122 -301q0 -168 -114 -293q114 -125 114 -293zM936 1014q0 66 -43 113t-109 47h-362v-318h362q66 0 109 47.5t43 110.5zM936 428q0 63 -43 110.5t-109 47.5h-362v-318h362q66 0 109 47t43 113z " />
<glyph unicode="C" horiz-adv-x="1175" d="M1094 1178l-234 -134q-35 59 -94 94.5t-129 35.5q-106 0 -181 -76t-75 -183v-391q0 -104 74.5 -180t181.5 -76q150 0 223 129l234 -135q-72 -121 -194 -191.5t-263 -70.5q-217 0 -370.5 153.5t-153.5 370.5v391q0 217 153.5 372t370.5 155q141 0 264 -70.5t193 -193.5z " />
<glyph unicode="D" horiz-adv-x="1316" d="M1204 915v-391q0 -217 -154.5 -370.5t-371.5 -153.5h-524v1442h524q219 0 372.5 -154t153.5 -373zM936 524v391q0 106 -76 182.5t-182 76.5h-256v-906h256q106 0 182 76t76 180z" />
<glyph unicode="E" horiz-adv-x="1327" d="M1204 0h-1050v1442h1050v-268h-782v-320h782v-268h-782v-318h782v-268z" />
<glyph unicode="F" horiz-adv-x="1296" d="M1204 586h-782v-586h-268v1442h1050v-268h-782v-320h782v-268z" />
<glyph unicode="G" horiz-adv-x="1286" d="M1163 0h-268v68q-117 -68 -258 -68q-217 0 -370.5 153.5t-153.5 370.5v391q0 217 153.5 372t370.5 155q141 0 263 -72t194 -192l-234 -134q-35 59 -94 94.5t-129 35.5q-106 0 -181 -76t-75 -183v-391q0 -106 74.5 -181t181 -75t182.5 75t76 181v62h-258v268h526v-854z " />
<glyph unicode="H" horiz-adv-x="1357" d="M1204 0h-268v586h-514v-586h-268v1442h268v-588h514v588h268v-1442z" />
<glyph unicode="I" horiz-adv-x="575" d="M422 0h-268v1442h268v-1442z" />
<glyph unicode="J" horiz-adv-x="804" d="M672 1442v-965q0 -199 -139.5 -338t-335.5 -139h-187v268h187q84 0 145 61.5t61 147.5v965h269z" />
<glyph unicode="K" horiz-adv-x="1339" d="M1325 0h-324l-450 674l-129 -127v-547h-268v1442h268v-516l520 516h383l-580 -576z" />
<glyph unicode="L" horiz-adv-x="1214" d="M1204 0h-1050v1442h268v-1174h782v-268z" />
<glyph unicode="M" horiz-adv-x="1615" d="M1462 0h-268v668l-264 -668h-246l-262 668v-668h-268v1442h258l395 -1055l397 1055h258v-1442z" />
<glyph unicode="N" horiz-adv-x="1357" d="M1204 0h-246l-536 870v-870h-268v1442h245l537 -873v873h268v-1442z" />
<glyph unicode="O" horiz-adv-x="1275" d="M1163 915v-391q0 -217 -154.5 -370.5t-371.5 -153.5t-370.5 153.5t-153.5 370.5v391q0 217 153.5 372t370.5 155q219 0 372.5 -154t153.5 -373zM895 524v391q0 106 -76 182.5t-182.5 76.5t-181 -76t-74.5 -183v-391q0 -104 74.5 -180t181 -76t182.5 76t76 180z" />
<glyph unicode="P" horiz-adv-x="1245" d="M1204 1014q0 -174 -121.5 -301t-298.5 -127h-362v-586h-268v1442h630q176 0 298 -127t122 -301zM936 1014q0 66 -43 113t-109 47h-362v-318h362q66 0 109 47.5t43 110.5z" />
<glyph unicode="Q" horiz-adv-x="1286" d="M1163 190l-190 -190l-72 72q-121 -72 -264 -72q-217 0 -370.5 153.5t-153.5 370.5v391q0 217 153.5 372t370.5 155q219 0 372.5 -153.5t153.5 -373.5v-391q0 -141 -71 -262zM895 524v391q0 106 -76 182.5t-182.5 76.5t-181 -76t-74.5 -183v-391q0 -104 74.5 -180t181 -76 t182.5 76t76 180z" />
<glyph unicode="R" horiz-adv-x="1351" d="M1280 0h-295l-262 586h-301v-586h-268v1442h630q176 0 298 -127t122 -301q0 -113 -57 -213.5t-156 -159.5zM936 1014q0 66 -43 113t-109 47h-362v-318h362q66 0 109 47.5t43 110.5z" />
<glyph unicode="S" horiz-adv-x="1193" d="M1120 428q0 -176 -121.5 -302t-298.5 -126h-213q-135 0 -243.5 81t-151.5 206l254 88q16 -47 55 -77t86 -30h213q61 0 106.5 46t45.5 114q0 29 -9 50.5t-34 37.5t-43 26.5t-62.5 21.5t-66.5 16l-78 14q-74 12 -115 21.5t-108.5 30t-106.5 49t-79.5 70.5t-60 105.5 t-19.5 143.5q0 174 121.5 301t295.5 127h213q137 0 245 -81t151 -206l-254 -86q-16 47 -55 76t-87 29h-213q-59 0 -104 -46.5t-45 -113.5q0 -20 5 -38t17.5 -31l23.5 -23.5t35.5 -20.5t40 -15t48.5 -12.5t49 -11.5t56 -10t57 -10q80 -14 131 -28.5t117.5 -45.5t105.5 -71 t67.5 -109.5t28.5 -159.5z" />
<glyph unicode="T" horiz-adv-x="1071" d="M1061 1174h-391v-1174h-269v1174h-391v268h1051v-268z" />
<glyph unicode="U" horiz-adv-x="1316" d="M1184 1442v-918q0 -217 -155 -370.5t-372 -153.5t-370.5 153.5t-153.5 370.5v918h268v-918q0 -104 75 -180t181.5 -76t182 76t75.5 180v918h269z" />
<glyph unicode="V" horiz-adv-x="1267" d="M1257 1440l-483 -1440h-282l-482 1440h283l340 -1016l340 1016h284z" />
<glyph unicode="W" horiz-adv-x="1568" d="M1559 1440l-318 -1440h-276l-181 817l-180 -817h-276l-318 1440h275l182 -817l180 817h275l182 -817l180 817h275z" />
<glyph unicode="X" horiz-adv-x="1310" d="M1300 1440l-483 -721l483 -719h-323l-322 477l-321 -477h-324l484 719l-484 721h324l321 -479l322 479h323z" />
<glyph unicode="Y" horiz-adv-x="1310" d="M1300 1440l-509 -762v-678h-271v678l-510 762h324l321 -479l322 479h323z" />
<glyph unicode="Z" horiz-adv-x="1193" d="M1122 0h-1050v268l716 906h-716v268h1050v-268l-716 -906h716v-268z" />
<glyph unicode="[" horiz-adv-x="733" d="M682 0h-528v1442h528v-268h-260v-906h260v-268z" />
<glyph unicode="\" horiz-adv-x="720" d="M711 0h-281l-420 1442h281z" />
<glyph unicode="]" horiz-adv-x="733" d="M580 0h-529v268h260v906h-260v268h529v-1442z" />
<glyph unicode="^" horiz-adv-x="1079" d="M539 1106l-275 -481l-233 135l391 682h235l392 -684l-234 -133z" />
<glyph unicode="_" horiz-adv-x="1275" d="M1163 0h-1050v268h1050v-268z" />
<glyph unicode="`" horiz-adv-x="622" d="M133 1280l92 160l264 -152l-92 -160z" />
<glyph unicode="a" horiz-adv-x="1157" d="M1034 0h-268v31q-74 -31 -158 -31h-196q-137 0 -233.5 96.5t-96.5 233.5t96 233t234 96h293q61 0 61 13q0 109 -160 108h-96q-104 0 -145 -94l-246 111q51 115 156.5 184.5t234.5 69.5h96q170 0 299 -96.5t129 -282.5v-672zM762 393q-18 -2 -57 -2h-293 q-25 0 -43.5 -18.5t-18.5 -42.5q0 -27 18.5 -44.5t43.5 -17.5h196q57 0 100.5 36t53.5 89z" />
<glyph unicode="b" horiz-adv-x="1187" d="M1106 573v-96q0 -199 -139.5 -338t-335.5 -139q-109 0 -209 47v-47h-268v1442h268v-438q100 47 209 47q197 0 336 -139.5t139 -338.5zM838 477v96q0 86 -61.5 147.5t-145.5 61.5q-86 0 -147.5 -61.5t-61.5 -147.5v-96q0 -86 61.5 -147.5t147.5 -61.5q84 0 145.5 61.5 t61.5 147.5z" />
<glyph unicode="c" horiz-adv-x="1050" d="M989 272q-59 -125 -176 -198.5t-254 -73.5q-199 0 -338 139.5t-139 337.5v96q0 199 139 338.5t338 139.5q137 0 254 -74t176 -199l-244 -116q-27 55 -77 87.5t-109 32.5q-86 0 -147.5 -61.5t-61.5 -147.5v-96q0 -86 61.5 -147.5t147.5 -61.5q59 0 109.5 33t76.5 86z" />
<glyph unicode="d" d="M1034 0h-268v47q-100 -47 -207 -47q-199 0 -338 139.5t-139 337.5v96q0 199 139 338.5t338 139.5q106 0 207 -47v438h268v-1442zM766 477v96q0 86 -61.5 147.5t-145.5 61.5q-86 0 -147.5 -61.5t-61.5 -147.5v-96q0 -86 61.5 -147.5t147.5 -61.5q84 0 145.5 61.5 t61.5 147.5z" />
<glyph unicode="e" horiz-adv-x="1116" d="M1034 573v-184h-665q27 -55 78 -88t112 -33q100 0 162 78l211 -168q-145 -178 -373 -178q-199 0 -338 139.5t-139 335.5v98q0 197 139 336.5t338 139.5q197 0 336 -139.5t139 -336.5zM748 659q-25 55 -77.5 88t-111.5 33q-61 0 -112.5 -32.5t-77.5 -88.5h379z" />
<glyph unicode="f" horiz-adv-x="745" d="M715 782h-228v-782h-268v782h-229v269h229v61q0 135 96.5 232.5t233.5 97.5h166v-268h-135q-92 0 -93 -62v-61h228v-269z" />
<glyph unicode="g" d="M1034 1051v-965q0 -199 -139 -338t-336 -139q-137 0 -255 74.5t-177 199.5l244 115q25 -53 76 -87t112 -34q74 0 131.5 48t71.5 120q-100 -45 -203 -45q-199 0 -338 139.5t-139 337.5v96q0 199 139 338.5t338 139.5q106 0 207 -47v47h268zM766 477v96q0 86 -61.5 147.5 t-145.5 61.5q-86 0 -147.5 -61.5t-61.5 -147.5v-96q0 -86 61.5 -147.5t147.5 -61.5q84 0 145.5 61.5t61.5 147.5z" />
<glyph unicode="h" horiz-adv-x="1218" d="M1106 0h-268v573q0 86 -61.5 147.5t-145.5 61.5q-86 0 -147.5 -61.5t-61.5 -147.5v-573h-268v1442h268v-438q100 47 209 47q197 0 336 -139.5t139 -338.5v-573z" />
<glyph unicode="i" horiz-adv-x="575" d="M422 1110h-268v332h268v-332zM422 0h-268v1051h268v-1051z" />
<glyph unicode="j" horiz-adv-x="634" d="M481 1110h-268v332h268v-332zM481 1051v-1112q0 -137 -96 -233.5t-233 -96.5h-162v268h135q88 0 88 62v1112h268z" />
<glyph unicode="k" horiz-adv-x="1226" d="M1196 0h-313l-308 518l-163 -139v-379h-269v1442h269v-709l370 318h414l-412 -355z" />
<glyph unicode="l" horiz-adv-x="555" d="M412 0h-269v1442h269v-1442z" />
<glyph unicode="m" horiz-adv-x="1443" d="M1321 0h-268v696q0 43 -29 64.5t-72 21.5q-35 0 -60.5 -25.5t-25.5 -60.5v-696h-268v696q0 43 -28.5 64.5t-71.5 21.5q-35 0 -60.5 -25.5t-25.5 -60.5v-696h-269v1051h269v-11q41 10 100 11q123 0 221 -76q96 76 234 76q147 0 250.5 -104.5t103.5 -250.5v-696z" />
<glyph unicode="n" horiz-adv-x="1208" d="M1096 0h-269v573q0 86 -61 147.5t-145 61.5q-86 0 -147.5 -61.5t-61.5 -147.5v-573h-269v1051h269v-47q100 47 209 47q197 0 336 -139.5t139 -338.5v-573z" />
<glyph unicode="o" horiz-adv-x="1116" d="M1034 573v-96q0 -199 -139 -338t-336 -139q-199 0 -338 139.5t-139 337.5v96q0 199 139 338.5t338 139.5q197 0 336 -139.5t139 -338.5zM766 477v96q0 86 -61.5 147.5t-145.5 61.5q-86 0 -147.5 -61.5t-61.5 -147.5v-96q0 -86 61.5 -147.5t147.5 -61.5q84 0 145.5 61.5 t61.5 147.5z" />
<glyph unicode="p" d="M1096 573v-96q0 -199 -139.5 -338t-335.5 -139q-109 0 -209 47v-438h-269v1442h269v-47q100 47 209 47q197 0 336 -139.5t139 -338.5zM827 477v96q0 86 -61 147.5t-145 61.5q-86 0 -147.5 -61.5t-61.5 -147.5v-96q0 -86 61.5 -147.5t147.5 -61.5q84 0 145 61.5t61 147.5z " />
<glyph unicode="q" d="M1034 -391h-268v438q-100 -47 -207 -47q-199 0 -338 139.5t-139 337.5v96q0 199 139 338.5t338 139.5q106 0 207 -47v47h268v-1442zM766 477v96q0 86 -61.5 147.5t-145.5 61.5q-86 0 -147.5 -61.5t-61.5 -147.5v-96q0 -86 61.5 -147.5t147.5 -61.5q84 0 145.5 61.5 t61.5 147.5z" />
<glyph unicode="r" horiz-adv-x="774" d="M754 782h-133q-86 0 -147.5 -61.5t-61.5 -147.5v-573h-269v1051h269v-47q100 47 209 47h133v-269z" />
<glyph unicode="s" horiz-adv-x="1095" d="M1004 330q0 -137 -96.5 -233.5t-233.5 -96.5h-205q-139 0 -249.5 79t-153.5 206l251 90q16 -47 58.5 -77t93.5 -30h205q27 0 44 17.5t17 44.5q0 33 -35.5 44t-148.5 19t-193 21q-133 23 -220 100.5t-87 206.5q0 137 96.5 233.5t233.5 96.5h207q137 0 247.5 -80 t155.5 -207l-254 -88q-16 47 -58 76.5t-91 29.5h-207q-25 0 -43.5 -18.5t-18.5 -42.5q0 -33 41 -45t153 -19.5t183 -19.5q131 -23 219.5 -101.5t88.5 -205.5z" />
<glyph unicode="t" horiz-adv-x="745" d="M694 0h-166q-137 0 -233 96.5t-96 233.5v452h-230v269h230v391h268v-391h227v-269h-227v-452q0 -61 92 -62h135v-268z" />
<glyph unicode="u" horiz-adv-x="1208" d="M1065 0h-268v47q-100 -47 -207 -47q-199 0 -338 139.5t-139 337.5v574h268v-574q0 -86 61.5 -147.5t147.5 -61.5q84 0 145.5 61.5t61.5 147.5v574h268v-1051z" />
<glyph unicode="v" horiz-adv-x="1208" d="M1188 1051l-461 -1051h-246l-461 1051h293l291 -662l289 662h295z" />
<glyph unicode="w" horiz-adv-x="1531" d="M1501 1051l-330 -1051h-245l-166 567l-176 -567h-246l-307 1051h293l137 -539l157 539h293l138 -539l157 539h295z" />
<glyph unicode="x" horiz-adv-x="1187" d="M1167 1051l-413 -527l413 -524h-342l-241 307l-242 -307h-342l412 524l-412 527h342l242 -310l241 310h342z" />
<glyph unicode="y" horiz-adv-x="1187" d="M1178 1051l-633 -1440h-293l194 444l-436 996h293l291 -662l289 662h295z" />
<glyph unicode="z" horiz-adv-x="1001" d="M961 0h-920v268l522 514h-522v269h920v-269l-523 -514h523v-268z" />
<glyph unicode="{" horiz-adv-x="700" d="M649 0h-196q-137 0 -233.5 96.5t-96.5 233.5v194q0 27 -18.5 44.5t-43.5 17.5v270q25 0 43.5 17.5t18.5 41.5v197q0 135 96 232.5t234 97.5h196v-268h-196q-25 0 -43.5 -18.5t-18.5 -43.5v-197q0 -109 -63 -194q63 -88 63 -197v-194q0 -25 18.5 -43.5t43.5 -18.5h196 v-268z" />
<glyph unicode="|" horiz-adv-x="575" d="M422 0h-268v1442h268v-1442z" />
<glyph unicode="}" horiz-adv-x="700" d="M639 586q-25 0 -43 -17.5t-18 -44.5v-194q0 -137 -96.5 -233.5t-233.5 -96.5h-197v268h197q27 0 44 18.5t17 43.5v194q0 109 66 197q-66 84 -66 194v197q0 25 -17.5 43.5t-43.5 18.5h-197v268h197q137 0 233.5 -97.5t96.5 -232.5v-197q0 -25 18 -42t43 -17v-270z" />
<glyph unicode="~" horiz-adv-x="1116" d="M1024 526l-94 -94q-98 -98 -205 -98q-74 0 -179.5 56t-131.5 56q-23 0 -37 -14l-94 -94l-191 188l94 97q96 98 205 98q76 0 180.5 -57.5t130.5 -57.5q20 0 37 17l97 94z" />
<glyph unicode="&#xa1;" horiz-adv-x="575" d="M422 1112h-268v330h268v-330zM422 0h-268v1051h268v-1051z" />
<glyph unicode="&#xa2;" d="M1030 270q-90 -190 -297 -252v-215h-268v215q-150 43 -246 170t-96 287v98q0 160 96 287t246 170v215h268v-215q203 -59 297 -252l-244 -116q-57 119 -186 118q-86 0 -147.5 -60.5t-61.5 -146.5v-98q0 -86 61.5 -146.5t147.5 -60.5q61 0 111.5 33t74.5 86z" />
<glyph unicode="&#xa3;" horiz-adv-x="1370" d="M1339 0h-1050v586h-258v268h258v61q0 219 153.5 373t370.5 154q143 0 264 -72t191 -192l-232 -134q-76 127 -223 127q-106 0 -181 -74.5t-75 -181.5v-61h387v-268h-387v-318h512v197h270v-465z" />
<glyph unicode="&#xa4;" horiz-adv-x="1267" d="M1165 121l-202 -176l-99 114q-106 -59 -229 -59q-125 0 -229 57l-101 -112l-203 176l113 129q-57 104 -57 225v98q0 123 57 228l-113 127l203 178l101 -115q109 59 229 60q117 0 229 -60l99 115l202 -178l-112 -129q57 -104 57 -226v-98q0 -121 -57 -225zM842 475v98 q0 86 -60.5 146.5t-146.5 60.5t-147.5 -60.5t-61.5 -146.5v-98q0 -86 61.5 -146.5t147.5 -60.5t146.5 60.5t60.5 146.5z" />
<glyph unicode="&#xa5;" horiz-adv-x="1351" d="M1321 1442l-262 -391h141v-269h-321l-68 -104v-19h389v-268h-389v-391h-270v391h-389v268h389v19l-68 104h-321v269h141l-262 391h323l322 -481l321 481h324z" />
<glyph unicode="&#xa6;" horiz-adv-x="573" d="M422 778h-268v660h268v-660zM422 -2h-268v659h268v-659z" />
<glyph unicode="&#xa7;" horiz-adv-x="1157" d="M1063 328q0 -137 -96.5 -233.5t-233.5 -96.5h-211q-137 0 -248.5 80t-154.5 207l254 88q16 -47 57 -76t92 -29h211q61 0 62 51q0 37 -107 54l-291 41q-125 16 -204.5 110t-79.5 217q0 104 65 195q-66 76 -65 176q0 137 96 233.5t233 96.5h213q137 0 248 -80t156 -207 l-254 -88q-16 47 -58 77t-92 30h-213q-61 0 -61 -52q0 -39 108 -55l291 -41q123 -16 203 -109.5t80 -216.5q0 -111 -64 -196q64 -78 64 -176zM725 639q27 -2 48.5 14.5t21.5 46.5q0 23 -14.5 41.5t-37.5 20.5l-290 39q-27 4 -48.5 -13.5t-21.5 -46.5q0 -53 51 -61z" />
<glyph unicode="&#xa8;" horiz-adv-x="843" d="M741 1112h-270v330h270v-330zM371 1112h-269v330h269v-330z" />
<glyph unicode="&#xa9;" horiz-adv-x="1669" d="M1556 723q0 -299 -211.5 -511t-510.5 -212t-510 212t-211 511q0 297 212 509t509 212q299 0 510.5 -211t211.5 -510zM1473 723q0 262 -187.5 449.5t-451.5 187.5q-262 0 -449.5 -187.5t-187.5 -449.5q0 -264 187 -450.5t450 -186.5q264 0 451.5 186.5t187.5 450.5z M1130 1042l-73 -43q-35 59 -94.5 94t-128.5 35q-106 0 -181 -74.5t-75 -181.5v-299q0 -106 74.5 -182t181.5 -76q70 0 129 36t94 93l71 -43q-43 -78 -121.5 -124t-172.5 -46q-141 0 -241.5 100.5t-100.5 241.5v299q0 141 100 240.5t242 99.5q94 0 172.5 -46t123.5 -124z" />
<glyph unicode="&#xaa;" horiz-adv-x="540" d="M428 1051h-100v10q-31 -10 -60 -10h-73q-51 0 -87 35.5t-36 87t35.5 87t87.5 35.5h110q23 0 23 4q0 41 -60 41h-37q-39 0 -53 -34l-92 41q18 43 57 68.5t88 25.5h37q63 0 111.5 -36t48.5 -106v-249zM326 1196h-131q-23 0 -23 -22.5t23 -22.5h73q48 0 58 45z" />
<glyph unicode="&#xab;" horiz-adv-x="1556" d="M1526 0h-361l-385 436v176l385 437h361l-467 -525zM807 0h-358l-388 436v176l388 437h358l-465 -525z" />
<glyph unicode="&#xac;" horiz-adv-x="1148" d="M1077 0h-268v391h-778v268h1046v-659z" />
<glyph unicode="&#xad;" horiz-adv-x="706" d="M614 391h-522v268h522v-268z" />
<glyph unicode="&#xae;" horiz-adv-x="1669" d="M1556 723q0 -299 -211.5 -511t-510.5 -212t-510 212t-211 511q0 297 212 509t509 212q299 0 510.5 -211t211.5 -510zM1473 723q0 262 -187.5 449.5t-451.5 187.5q-262 0 -449.5 -187.5t-187.5 -449.5q0 -264 187 -450.5t450 -186.5q264 0 451.5 186.5t187.5 450.5z M1176 946q0 -88 -51.5 -157.5t-131.5 -96.5l187 -418h-97l-178 406h-327v-406h-84l-2 938h423q109 0 185 -77.5t76 -188.5zM1092 946q0 76 -52.5 129t-124.5 53h-337v-362h337q72 0 124.5 52t52.5 128z" />
<glyph unicode="&#xaf;" horiz-adv-x="735" d="M623 1257h-510v183h510v-183z" />
<glyph unicode="&#xb0;" horiz-adv-x="866" d="M795 1087v-169q0 -147 -103.5 -251t-251.5 -104h-14q-147 0 -250.5 103.5t-103.5 251.5v169q0 147 103.5 251t250.5 104h14q147 0 251 -104t104 -251zM526 918v169q0 35 -25.5 61t-60.5 26h-14q-35 0 -60.5 -26t-25.5 -61v-169q0 -35 25.5 -61t60.5 -26h14q35 0 60.5 26 t25.5 61z" />
<glyph unicode="&#xb1;" horiz-adv-x="1136" d="M1092 782h-392v-391h-268v391h-391v269h391v391h268v-391h392v-269zM1096 -2h-1051v268h1051v-268z" />
<glyph unicode="&#xb2;" horiz-adv-x="681" d="M569 719h-477v135l318 315q25 25 24.5 58t-24 56.5t-56.5 23.5h-49q-55 0 -74 -54l-127 45q23 61 78.5 101.5t122.5 40.5h49q90 0 152.5 -62.5t62.5 -150.5t-59 -148l-227 -225h286v-135z" />
<glyph unicode="&#xb3;" horiz-adv-x="649" d="M547 934q0 -90 -62.5 -152.5t-152.5 -62.5h-49q-68 0 -123.5 40t-77.5 103l127 45q18 -53 74 -53h49q33 0 56.5 23.5t23.5 56.5t-23.5 56.5t-56.5 23.5h-49v133h49q33 0 56.5 22.5t23.5 57.5q0 33 -23.5 56.5t-56.5 23.5h-49q-55 0 -74 -54l-127 45q23 61 78 101.5 t123 40.5h49q90 0 152.5 -62.5t62.5 -150.5q0 -84 -60 -148q60 -59 60 -145z" />
<glyph unicode="&#xb4;" horiz-adv-x="622" d="M225 1128l-92 160l264 152l92 -160z" />
<glyph unicode="&#xb5;" horiz-adv-x="1239" d="M1096 0h-269v47q-98 -47 -206 -47q-111 0 -209 47v-438h-269v1442h269v-574q0 -86 61.5 -147.5t147.5 -61.5t146 61.5t60 147.5v574h269v-1051z" />
<glyph unicode="&#x3bc;" horiz-adv-x="1239" d="M1096 0h-269v47q-98 -47 -206 -47q-111 0 -209 47v-438h-269v1442h269v-574q0 -86 61.5 -147.5t147.5 -61.5t146 61.5t60 147.5v574h269v-1051z" />
<glyph unicode="&#xb6;" horiz-adv-x="1224" d="M1071 0h-268v586h-92v-586h-269v586q-176 0 -299 126t-123 302q0 174 122 301t296 127h633v-1442zM803 856v318h-92v-318h92z" />
<glyph unicode="&#xb7;" horiz-adv-x="493" d="M381 555h-268v330h268v-330z" />
<glyph unicode="&#xb8;" horiz-adv-x="348" d="M297 -150q0 -51 -36 -86.5t-87 -35.5t-87 35.5t-36 86.5h27q0 -39 28.5 -66.5t67.5 -27.5t66.5 28t27.5 66.5t-27.5 67.5t-66.5 29h-14v84h26v-58q47 -6 79 -41t32 -82z" />
<glyph unicode="&#xb9;" horiz-adv-x="509" d="M356 719h-135v588h-170v133h305v-721z" />
<glyph unicode="&#xba;" horiz-adv-x="520" d="M438 1264v-37q0 -72 -52 -124t-126 -52t-126 52t-52 124v37q0 74 52 126t126 52t126 -52t52 -126zM338 1227v37q0 33 -22.5 55t-55.5 22t-55.5 -22.5t-22.5 -54.5v-37q0 -31 22.5 -53.5t55.5 -22.5t55.5 22.5t22.5 53.5z" />
<glyph unicode="&#xbb;" horiz-adv-x="1556" d="M1495 436l-387 -436h-358l464 524l-464 525h358l387 -437v-176zM776 436l-387 -436h-358l465 524l-465 525h358l387 -437v-176z" />
<glyph unicode="&#xbc;" horiz-adv-x="1099" d="M356 719h-135v588h-170v133h305v-721zM946 1440l-846 -1440h-28l848 1440h26zM967 0h-133v195h-340v135l163 389h144l-164 -389h197v194h133v-524z" />
<glyph unicode="&#xbd;" horiz-adv-x="1069" d="M356 719h-135v588h-170v133h305v-721zM946 1440l-846 -1440h-28l848 1440h26zM967 0h-475v133l315 316q27 27 27 57q0 33 -24 56.5t-56 23.5h-49q-55 0 -76 -54l-125 46q23 61 78 101t123 40h49q90 0 151.5 -62.5t61.5 -150.5t-60 -148l-225 -225h285v-133z" />
<glyph unicode="&#xbe;" horiz-adv-x="1101" d="M557 934q0 -90 -63.5 -152.5t-151.5 -62.5h-49q-68 0 -123 40t-78 103l127 45q18 -53 74 -53h49q35 0 57.5 23.5t22.5 56.5t-23.5 56.5t-56.5 23.5h-49v133h49q35 0 57.5 22.5t22.5 57.5q0 33 -23.5 56.5t-56.5 23.5h-49q-55 0 -74 -54l-127 45q23 61 78 101.5t123 40.5 h49q90 0 152.5 -62.5t62.5 -150.5q0 -84 -59 -148q59 -59 59 -145zM985 1440l-846 -1440h-28l847 1440h27zM1004 0h-134v195h-340v135l164 389h144l-162 -389h194v194h134v-524z" />
<glyph unicode="&#xbf;" horiz-adv-x="999" d="M684 1108h-270v330h270v-330zM999 283q-45 -129 -155.5 -207t-247.5 -78h-96q-176 0 -302 125t-126 301q0 152 96 270.5t246 149.5v203h270v-463h-184q-66 0 -113 -47.5t-47 -113t47 -111.5t113 -46h96q51 0 93 29t59 76z" />
<glyph unicode="&#xc0;" horiz-adv-x="1267" d="M1257 0h-284l-99 293h-483l-98 -293h-283l482 1442h282zM786 561l-153 457l-152 -457h305zM817 1702l-92 -160l-264 152l92 159z" />
<glyph unicode="&#xc1;" horiz-adv-x="1267" d="M1257 0h-284l-99 293h-483l-98 -293h-283l482 1442h282zM786 561l-153 457l-152 -457h305zM539 1544l-93 160l265 151l92 -159z" />
<glyph unicode="&#xc2;" horiz-adv-x="1267" d="M1257 0h-284l-99 293h-483l-98 -293h-283l482 1442h282zM786 561l-153 457l-152 -457h305zM436 1546l-92 160l264 152h51l265 -152l-93 -160l-198 113z" />
<glyph unicode="&#xc3;" horiz-adv-x="1267" d="M1257 0h-284l-99 293h-483l-98 -293h-283l482 1442h282zM786 561l-153 457l-152 -457h305zM270 1534v90q0 96 66.5 163.5t163.5 67.5q68 0 119 -34.5t82.5 -68.5t52 -34t34 13.5t13.5 31.5v92h184v-92q0 -94 -67.5 -161.5t-163.5 -67.5q-53 0 -97.5 21.5t-67 47t-47 47 t-43 21.5t-31.5 -13t-13 -34v-90h-185z" />
<glyph unicode="&#xc4;" horiz-adv-x="1267" d="M950 1534h-270v330h270v-330zM580 1534h-269v330h269v-330zM1257 0h-284l-99 293h-483l-98 -293h-283l482 1442h282zM786 561l-153 457l-152 -457h305z" />
<glyph unicode="&#xc5;" horiz-adv-x="1267" d="M1257 0h-284l-99 293h-483l-98 -293h-283l482 1442h282zM786 561l-153 457l-152 -457h305zM813 1712q0 -74 -53 -126t-127 -52t-126 52t-52 126t52 127t126 53t127 -53t53 -127zM698 1712q0 29 -19.5 47.5t-46 18.5t-46 -18.5t-19.5 -47.5t19.5 -47t46 -18t46 18t19.5 47 z" />
<glyph unicode="&#xc6;" horiz-adv-x="2105" d="M1982 0h-1050v293h-445l-194 -293h-324l963 1442h1050v-271h-782v-317h782v-268h-782v-318h782v-268zM932 561v395l-264 -395h264z" />
<glyph unicode="&#xc7;" horiz-adv-x="1175" d="M1094 1178l-234 -134q-35 59 -94 94.5t-129 35.5q-106 0 -181 -76t-75 -183v-391q0 -104 74.5 -180t181.5 -76q150 0 223 129l234 -135q-70 -119 -189 -189.5t-256 -72.5v-27q47 -6 78 -40.5t31 -82.5q0 -51 -36 -86.5t-87 -35.5t-87 35.5t-36 86.5h29q0 -39 27.5 -66.5 t66.5 -27.5t67.5 28t28.5 66.5t-27.5 67.5t-68.5 29h-12v53q-213 6 -361.5 159.5t-148.5 364.5v391q0 217 153.5 372t370.5 155q141 0 264 -70.5t193 -193.5z" />
<glyph unicode="&#xc8;" horiz-adv-x="1327" d="M1204 0h-1050v1442h1050v-268h-782v-320h782v-268h-782v-318h782v-268zM864 1704l-92 -160l-264 152l92 159z" />
<glyph unicode="&#xc9;" horiz-adv-x="1327" d="M1204 0h-1050v1442h1050v-268h-782v-320h782v-268h-782v-318h782v-268zM600 1544l-92 160l264 151l92 -159z" />
<glyph unicode="&#xca;" horiz-adv-x="1327" d="M1204 0h-1050v1442h1050v-268h-782v-320h782v-268h-782v-318h782v-268zM477 1544l-92 160l264 151h51l265 -151l-93 -160l-198 113z" />
<glyph unicode="&#xcb;" horiz-adv-x="1327" d="M997 1534h-270v330h270v-330zM627 1534h-269v330h269v-330zM1204 0h-1050v1442h1050v-268h-782v-320h782v-268h-782v-318h782v-268z" />
<glyph unicode="&#xcc;" horiz-adv-x="575" d="M422 0h-268v1442h268v-1442zM465 1704l-92 -160l-264 152l92 159z" />
<glyph unicode="&#xcd;" horiz-adv-x="575" d="M422 0h-268v1442h268v-1442zM201 1544l-92 160l264 151l92 -159z" />
<glyph unicode="&#xce;" horiz-adv-x="585" d="M406 0h-269v1442h269v-1442zM94 1548l-92 160l264 152h51l265 -152l-93 -160l-198 113z" />
<glyph unicode="&#xcf;" horiz-adv-x="575" d="M422 0h-268v1442h268v-1442zM606 1534h-270v330h270v-330zM238 1534h-269v330h269v-330z" />
<glyph unicode="&#xd0;" horiz-adv-x="1423" d="M1311 915v-389q0 -219 -151.5 -372.5t-368.5 -153.5h-531v586h-260v270h260v586h531q217 0 368.5 -154t151.5 -373zM1042 526v389q0 109 -72.5 184t-178.5 75h-263v-318h263v-270h-263v-318h263q106 0 178.5 74.5t72.5 183.5z" />
<glyph unicode="&#xd1;" horiz-adv-x="1357" d="M1204 0h-246l-536 870v-870h-268v1442h245l537 -873v873h268v-1442zM324 1534v90q0 96 66.5 163.5t162.5 67.5q68 0 119 -34.5t82.5 -68.5t52 -34t34 13.5t13.5 31.5v92h184v-92q0 -94 -67.5 -161.5t-163.5 -67.5q-53 0 -97 21.5t-66.5 47t-47.5 47t-43 21.5t-31.5 -13 t-13.5 -34v-90h-184z" />
<glyph unicode="&#xd2;" horiz-adv-x="1275" d="M1163 915v-391q0 -217 -154.5 -370.5t-371.5 -153.5t-370.5 153.5t-153.5 370.5v391q0 217 153.5 372t370.5 155q219 0 372.5 -154t153.5 -373zM895 524v391q0 106 -76 182.5t-182.5 76.5t-181 -76t-74.5 -183v-391q0 -104 74.5 -180t181 -76t182.5 76t76 180zM793 1702 l-93 -160l-264 152l92 159z" />
<glyph unicode="&#xd3;" horiz-adv-x="1275" d="M1163 915v-391q0 -217 -154.5 -370.5t-371.5 -153.5t-370.5 153.5t-153.5 370.5v391q0 217 153.5 372t370.5 155q219 0 372.5 -154t153.5 -373zM895 524v391q0 106 -76 182.5t-182.5 76.5t-181 -76t-74.5 -183v-391q0 -104 74.5 -180t181 -76t182.5 76t76 180zM528 1544 l-92 160l264 151l93 -159z" />
<glyph unicode="&#xd4;" horiz-adv-x="1275" d="M1163 915v-391q0 -217 -154.5 -370.5t-371.5 -153.5t-370.5 153.5t-153.5 370.5v391q0 217 153.5 372t370.5 155q219 0 372.5 -154t153.5 -373zM895 524v391q0 106 -76 182.5t-182.5 76.5t-181 -76t-74.5 -183v-391q0 -104 74.5 -180t181 -76t182.5 76t76 180zM438 1544 l-92 160l264 151h52l264 -151l-92 -160l-199 113z" />
<glyph unicode="&#xd5;" horiz-adv-x="1275" d="M1163 915v-391q0 -217 -154.5 -370.5t-371.5 -153.5t-370.5 153.5t-153.5 370.5v391q0 217 153.5 372t370.5 155q219 0 372.5 -154t153.5 -373zM895 524v391q0 106 -76 182.5t-182.5 76.5t-181 -76t-74.5 -183v-391q0 -104 74.5 -180t181 -76t182.5 76t76 180zM276 1534 v90q0 96 67 163.5t163 67.5q68 0 119 -34.5t82.5 -68.5t52 -34t34 13.5t13.5 31.5v92h184v-92q0 -94 -67.5 -161.5t-163.5 -67.5q-53 0 -97.5 21.5t-67 47t-47 47t-43 21.5t-31.5 -13t-13 -34v-90h-185z" />
<glyph unicode="&#xd6;" horiz-adv-x="1275" d="M1163 915v-391q0 -217 -154.5 -370.5t-371.5 -153.5t-370.5 153.5t-153.5 370.5v391q0 217 153.5 372t370.5 155q219 0 372.5 -154t153.5 -373zM895 524v391q0 106 -76 182.5t-182.5 76.5t-181 -76t-74.5 -183v-391q0 -104 74.5 -180t181 -76t182.5 76t76 180zM950 1534 h-270v330h270v-330zM580 1534h-269v330h269v-330z" />
<glyph unicode="&#xd7;" horiz-adv-x="1013" d="M973 803l-277 -279l277 -276l-189 -189l-278 277l-277 -277l-188 189l276 276l-276 279l188 188l277 -276l278 276z" />
<glyph unicode="&#xd8;" horiz-adv-x="1275" d="M1163 915v-391q0 -217 -154.5 -370.5t-371.5 -153.5q-211 0 -367 150l-98 -150h-31l113 166q-141 152 -141 358v391q0 217 153.5 371t370.5 154q215 0 367 -148l100 148h29l-111 -166q141 -152 141 -359zM850 1059q-76 113 -213 112q-106 0 -181 -74.5t-75 -181.5v-391 q0 -59 31 -121zM895 524v391q0 63 -31 121l-438 -655q76 -113 211 -113q106 0 182 75t76 181z" />
<glyph unicode="&#xd9;" horiz-adv-x="1316" d="M1184 1442v-918q0 -217 -155 -370.5t-372 -153.5t-370.5 153.5t-153.5 370.5v918h268v-918q0 -104 75 -180t181.5 -76t182 76t75.5 180v918h269zM838 1702l-93 -160l-264 152l92 159z" />
<glyph unicode="&#xda;" horiz-adv-x="1316" d="M1184 1442v-918q0 -217 -155 -370.5t-372 -153.5t-370.5 153.5t-153.5 370.5v918h268v-918q0 -104 75 -180t181.5 -76t182 76t75.5 180v918h269zM573 1544l-92 160l264 151l93 -159z" />
<glyph unicode="&#xdb;" horiz-adv-x="1316" d="M1184 1442v-918q0 -217 -155 -370.5t-372 -153.5t-370.5 153.5t-153.5 370.5v918h268v-918q0 -104 75 -180t181.5 -76t182 76t75.5 180v918h269zM459 1546l-92 160l264 152h51l264 -152l-92 -160l-199 113z" />
<glyph unicode="&#xdc;" horiz-adv-x="1316" d="M1184 1442v-918q0 -217 -155 -370.5t-372 -153.5t-370.5 153.5t-153.5 370.5v918h268v-918q0 -104 75 -180t181.5 -76t182 76t75.5 180v918h269zM977 1534h-270v330h270v-330zM606 1534h-268v330h268v-330z" />
<glyph unicode="&#xdd;" horiz-adv-x="1310" d="M1300 1440l-509 -762v-678h-271v678l-510 762h324l321 -479l322 479h323zM569 1542l-92 160l264 151l93 -159z" />
<glyph unicode="&#xde;" horiz-adv-x="1234" d="M1204 721q0 -174 -121.5 -301t-298.5 -127h-362v-293h-268v1442h268v-293h362q176 0 298 -127t122 -301zM936 720.5q0 67.5 -45 114t-107 46.5h-362v-320h362q61 0 106.5 46t45.5 113.5z" />
<glyph unicode="&#xdf;" horiz-adv-x="1198" d="M1096 428q0 -178 -125 -303t-303 -125h-97v268h97q66 0 112.5 47t46.5 113t-47 112t-112 46h-54v268h54q66 0 112.5 47t46.5 112.5t-47 113t-112 47.5h-97q-66 0 -112.5 -47.5t-46.5 -112.5v-1014h-269v1014q0 176 125 302t303 126h97q178 0 303 -126t125 -302 q0 -172 -117 -293q117 -123 117 -293z" />
<glyph unicode="&#xe0;" horiz-adv-x="1157" d="M1034 0h-268v29q-76 -29 -158 -29h-196q-137 0 -233.5 96.5t-96.5 233.5q0 135 96 232t234 97h293q61 0 61 13q0 109 -160 108h-96q-49 0 -88 -25.5t-57 -68.5l-246 111q51 113 156.5 182.5t234.5 69.5h96q172 0 300 -96.5t128 -280.5v-672zM762 393q-37 -4 -57 -4h-293 q-25 0 -43.5 -17.5t-18.5 -41.5q0 -27 18.5 -44.5t43.5 -17.5h196q57 0 100.5 36t53.5 89zM385 1280l92 160l264 -152l-92 -160z" />
<glyph unicode="&#xe1;" horiz-adv-x="1157" d="M1034 0h-268v29q-76 -29 -158 -29h-196q-137 0 -233.5 96.5t-96.5 233.5q0 135 96 232t234 97h293q61 0 61 13q0 109 -160 108h-96q-49 0 -88 -25.5t-57 -68.5l-246 111q51 113 156.5 182.5t234.5 69.5h96q172 0 300 -96.5t128 -280.5v-672zM762 393q-37 -4 -57 -4h-293 q-25 0 -43.5 -17.5t-18.5 -41.5q0 -27 18.5 -44.5t43.5 -17.5h196q57 0 100.5 36t53.5 89zM477 1128l-92 160l264 152l92 -160z" />
<glyph unicode="&#xe2;" horiz-adv-x="1157" d="M1034 0h-268v29q-76 -29 -158 -29h-196q-137 0 -233.5 96.5t-96.5 233.5q0 135 96 232t234 97h293q61 0 61 13q0 109 -160 108h-96q-49 0 -88 -25.5t-57 -68.5l-246 111q51 113 156.5 182.5t234.5 69.5h96q172 0 300 -96.5t128 -280.5v-672zM762 393q-37 -4 -57 -4h-293 q-25 0 -43.5 -17.5t-18.5 -41.5q0 -27 18.5 -44.5t43.5 -17.5h196q57 0 100.5 36t53.5 89zM354 1130l-92 160l264 152h52l264 -152l-92 -160l-199 113z" />
<glyph unicode="&#xe3;" horiz-adv-x="1157" d="M1034 0h-268v29q-76 -29 -158 -29h-196q-137 0 -233.5 96.5t-96.5 233.5q0 135 96 232t234 97h293q61 0 61 13q0 109 -160 108h-96q-49 0 -88 -25.5t-57 -68.5l-246 111q51 113 156.5 182.5t234.5 69.5h96q172 0 300 -96.5t128 -280.5v-672zM762 393q-37 -4 -57 -4h-293 q-25 0 -43.5 -17.5t-18.5 -41.5q0 -27 18.5 -44.5t43.5 -17.5h196q57 0 100.5 36t53.5 89zM209 1120v90q0 96 66.5 164t162.5 68q68 0 119 -35t83 -68.5t52.5 -33.5t33.5 13t13 32v92h185v-92q0 -94 -68 -162t-164 -68q-53 0 -97 21.5t-66.5 47t-47 47t-43 21.5t-32 -13 t-13.5 -34v-90h-184z" />
<glyph unicode="&#xe4;" horiz-adv-x="1157" d="M1034 0h-268v29q-76 -29 -158 -29h-196q-137 0 -233.5 96.5t-96.5 233.5q0 135 96 232t234 97h293q61 0 61 13q0 109 -160 108h-96q-49 0 -88 -25.5t-57 -68.5l-246 111q51 113 156.5 182.5t234.5 69.5h96q172 0 300 -96.5t128 -280.5v-672zM762 393q-37 -4 -57 -4h-293 q-25 0 -43.5 -17.5t-18.5 -41.5q0 -27 18.5 -44.5t43.5 -17.5h196q57 0 100.5 36t53.5 89zM879 1110h-271v330h271v-330zM508 1110h-268v330h268v-330z" />
<glyph unicode="&#xe5;" horiz-adv-x="1157" d="M1034 0h-268v31q-74 -31 -158 -31h-196q-137 0 -233.5 96.5t-96.5 233.5t96 233t234 96h293q61 0 61 13q0 109 -160 108h-96q-104 0 -145 -94l-246 111q51 115 156.5 184.5t234.5 69.5h96q170 0 299 -96.5t129 -282.5v-672zM762 393q-18 -2 -57 -2h-293 q-25 0 -43.5 -18.5t-18.5 -42.5q0 -27 18.5 -44.5t43.5 -17.5h196q57 0 100.5 36t53.5 89zM735 1261.5q0 -73.5 -53 -126t-127 -52.5t-126 52.5t-52 126t52 127t126 53.5t127 -53.5t53 -127zM621 1261.5q0 28.5 -19.5 47t-46.5 18.5t-46.5 -18.5t-19.5 -47t19.5 -47 t46.5 -18.5t46.5 18.5t19.5 47z" />
<glyph unicode="&#xe6;" horiz-adv-x="1779" d="M1698 573v-182h-666q27 -57 78 -90t113 -33q100 0 161 78l211 -166q-68 -86 -166 -133t-206 -47q-188 0 -328 129q-129 -129 -307 -129h-197q-137 0 -233.5 96.5t-96.5 233.5t96.5 233t233.5 96h293q61 0 61 13q0 109 -182 108q-92 0 -142 -17.5t-77 -76.5l-246 111 q53 115 158.5 184.5t232.5 69.5h97q199 0 323 -119q135 119 314 119q197 0 336 -140.5t139 -337.5zM1411 659q-25 55 -77 88t-111 33q-61 0 -112.5 -32.5t-78.5 -88.5h379zM741 393q-51 -4 -149 -4q-35 0 -101.5 1t-99.5 1q-25 0 -43 -18.5t-18 -42.5q0 -27 18.5 -44.5 t42.5 -17.5h197q55 0 99 36t54 89z" />
<glyph unicode="&#xe7;" horiz-adv-x="1050" d="M989 272q-57 -121 -170.5 -194.5t-247.5 -77.5v-27q47 -6 79 -40.5t32 -82.5q0 -51 -36 -86.5t-87 -35.5t-87 35.5t-36 86.5h27q0 -39 28.5 -66.5t67.5 -27.5t66.5 28t27.5 66.5t-27.5 67.5t-66.5 29h-14v53q-193 6 -328 144.5t-135 332.5v96q0 199 139 338.5t338 139.5 q137 0 254 -74t176 -199l-244 -116q-27 55 -77 87.5t-109 32.5q-86 0 -147.5 -61.5t-61.5 -147.5v-96q0 -86 61.5 -147.5t147.5 -61.5q59 0 109.5 33t76.5 86z" />
<glyph unicode="&#xe8;" horiz-adv-x="1116" d="M1034 573v-184h-665q27 -55 78 -88t112 -33q100 0 162 78l211 -168q-145 -178 -373 -178q-199 0 -338 139.5t-139 335.5v98q0 197 139 336.5t338 139.5q197 0 336 -139.5t139 -336.5zM748 659q-25 55 -77.5 88t-111.5 33q-61 0 -112.5 -32.5t-77.5 -88.5h379zM385 1280 l92 160l264 -152l-92 -160z" />
<glyph unicode="&#xe9;" horiz-adv-x="1116" d="M1034 573v-184h-665q27 -55 78 -88t112 -33q100 0 162 78l211 -168q-145 -178 -373 -178q-199 0 -338 139.5t-139 335.5v98q0 197 139 336.5t338 139.5q197 0 336 -139.5t139 -336.5zM748 659q-25 55 -77.5 88t-111.5 33q-61 0 -112.5 -32.5t-77.5 -88.5h379zM477 1128 l-92 160l264 152l92 -160z" />
<glyph unicode="&#xea;" horiz-adv-x="1116" d="M1034 573v-184h-665q27 -55 78 -88t112 -33q100 0 162 78l211 -168q-145 -178 -373 -178q-199 0 -338 139.5t-139 335.5v98q0 197 139 336.5t338 139.5q197 0 336 -139.5t139 -336.5zM748 659q-25 55 -77.5 88t-111.5 33q-61 0 -112.5 -32.5t-77.5 -88.5h379zM367 1130 l-93 160l265 152h51l264 -152l-92 -160l-199 113z" />
<glyph unicode="&#xeb;" horiz-adv-x="1116" d="M1034 573v-184h-665q27 -55 78 -88t112 -33q100 0 162 78l211 -168q-145 -178 -373 -178q-199 0 -338 139.5t-139 335.5v98q0 197 139 336.5t338 139.5q197 0 336 -139.5t139 -336.5zM748 659q-25 55 -77.5 88t-111.5 33q-61 0 -112.5 -32.5t-77.5 -88.5h379zM879 1110 h-271v330h271v-330zM508 1110h-268v330h268v-330z" />
<glyph unicode="&#xec;" horiz-adv-x="575" d="M422 0h-268v1051h268v-1051zM113 1280l92 160l264 -152l-92 -160z" />
<glyph unicode="&#xed;" horiz-adv-x="575" d="M422 0h-268v1051h268v-1051zM377 1440l92 -160l-264 -152l-92 160z" />
<glyph unicode="&#xee;" horiz-adv-x="575" d="M422 0h-268v1051h268v-1051zM90 1130l-92 160l264 152h51l265 -152l-93 -160l-198 113z" />
<glyph unicode="&#xef;" horiz-adv-x="575" d="M422 0h-268v1051h268v-1051zM606 1110h-270v330h270v-330zM238 1110h-269v330h269v-330z" />
<glyph unicode="&#xf0;" horiz-adv-x="1159" d="M1159 1075h-125v-1075h-268v47q-98 -47 -207 -47q-199 0 -338 139.5t-139 337.5v96q0 199 139 338.5t338 139.5q109 0 207 -47v71h-129v268h129v99h268v-99h125v-268zM766 477v96q0 86 -60.5 147.5t-146.5 61.5t-147.5 -61.5t-61.5 -147.5v-96q0 -86 61.5 -147.5 t147.5 -61.5t146.5 61.5t60.5 147.5z" />
<glyph unicode="&#xf1;" horiz-adv-x="1208" d="M1096 0h-269v573q0 86 -61 147.5t-145 61.5q-86 0 -147.5 -61.5t-61.5 -147.5v-573h-269v1051h269v-47q100 47 209 47q197 0 336 -139.5t139 -338.5v-573zM266 1120v90q0 96 66.5 164t163.5 68q68 0 119 -35t82.5 -68.5t52 -33.5t34 13t13.5 32v92h184v-92 q0 -94 -67.5 -162t-163.5 -68q-53 0 -97.5 21.5t-67 47t-47 47t-43 21.5t-31.5 -13t-13 -34v-90h-185z" />
<glyph unicode="&#xf2;" horiz-adv-x="1116" d="M1034 573v-96q0 -199 -139 -338t-336 -139q-199 0 -338 139.5t-139 337.5v96q0 199 139 338.5t338 139.5q197 0 336 -139.5t139 -338.5zM766 477v96q0 86 -61.5 147.5t-145.5 61.5q-86 0 -147.5 -61.5t-61.5 -147.5v-96q0 -86 61.5 -147.5t147.5 -61.5q84 0 145.5 61.5 t61.5 147.5zM721 1288l-92 -160l-264 152l92 160z" />
<glyph unicode="&#xf3;" horiz-adv-x="1116" d="M1034 573v-96q0 -199 -139 -338t-336 -139q-199 0 -338 139.5t-139 337.5v96q0 199 139 338.5t338 139.5q197 0 336 -139.5t139 -338.5zM766 477v96q0 86 -61.5 147.5t-145.5 61.5q-86 0 -147.5 -61.5t-61.5 -147.5v-96q0 -86 61.5 -147.5t147.5 -61.5q84 0 145.5 61.5 t61.5 147.5zM457 1128l-92 160l264 152l92 -160z" />
<glyph unicode="&#xf4;" horiz-adv-x="1116" d="M1034 573v-96q0 -199 -139 -338t-336 -139q-199 0 -338 139.5t-139 337.5v96q0 199 139 338.5t338 139.5q197 0 336 -139.5t139 -338.5zM766 477v96q0 86 -61.5 147.5t-145.5 61.5q-86 0 -147.5 -61.5t-61.5 -147.5v-96q0 -86 61.5 -147.5t147.5 -61.5q84 0 145.5 61.5 t61.5 147.5zM365 1130l-93 160l265 152h51l264 -152l-92 -160l-199 113z" />
<glyph unicode="&#xf5;" horiz-adv-x="1116" d="M1034 573v-96q0 -199 -139 -338t-336 -139q-199 0 -338 139.5t-139 337.5v96q0 199 139 338.5t338 139.5q197 0 336 -139.5t139 -338.5zM766 477v96q0 86 -61.5 147.5t-145.5 61.5q-86 0 -147.5 -61.5t-61.5 -147.5v-96q0 -86 61.5 -147.5t147.5 -61.5q84 0 145.5 61.5 t61.5 147.5zM201 1120v90q0 96 66.5 164t162.5 68q68 0 119 -35t83 -68.5t52.5 -33.5t33.5 13t13 32v92h184v-92q0 -94 -67.5 -162t-163.5 -68q-53 0 -97 21.5t-66.5 47t-47 47t-43 21.5t-32 -13t-13.5 -34v-90h-184z" />
<glyph unicode="&#xf6;" horiz-adv-x="1116" d="M872 1112h-268v330h268v-330zM504 1112h-271v330h271v-330zM1034 573v-96q0 -199 -139 -338t-336 -139q-199 0 -338 139.5t-139 337.5v96q0 199 139 338.5t338 139.5q197 0 336 -139.5t139 -338.5zM766 477v96q0 86 -61.5 147.5t-145.5 61.5q-86 0 -147.5 -61.5 t-61.5 -147.5v-96q0 -86 61.5 -147.5t147.5 -61.5q84 0 145.5 61.5t61.5 147.5z" />
<glyph unicode="&#xf7;" horiz-adv-x="1132" d="M700 723h-270v330h270v-330zM1092 391h-1051v268h1051v-268zM700 0h-270v330h270v-330z" />
<glyph unicode="&#xf8;" horiz-adv-x="1157" d="M1055 584v-97q0 -199 -139.5 -338t-335.5 -139q-152 0 -277 88l-59 -88h-31l70 105q-84 66 -132.5 163t-48.5 209v97q0 199 139.5 338t338.5 139q152 0 276 -88l57 88h31l-70 -103q181 -143 181 -374zM786 487v97q0 84 -61 149l-274 -409q57 -45 129 -45q86 0 146 61 t60 147zM707 750q-55 43 -127 43q-86 0 -147.5 -61.5t-61.5 -147.5v-97q0 -86 61 -147z" />
<glyph unicode="&#xf9;" horiz-adv-x="1208" d="M1065 0h-268v47q-100 -47 -207 -47q-199 0 -338 139.5t-139 337.5v574h268v-574q0 -86 61.5 -147.5t147.5 -61.5q84 0 145.5 61.5t61.5 147.5v574h268v-1051zM741 1288l-92 -160l-264 152l92 160z" />
<glyph unicode="&#xfa;" horiz-adv-x="1208" d="M1065 0h-268v47q-100 -47 -207 -47q-199 0 -338 139.5t-139 337.5v574h268v-574q0 -86 61.5 -147.5t147.5 -61.5q84 0 145.5 61.5t61.5 147.5v574h268v-1051zM477 1128l-92 160l264 152l92 -160z" />
<glyph unicode="&#xfb;" horiz-adv-x="1208" d="M1065 0h-268v47q-100 -47 -207 -47q-199 0 -338 139.5t-139 337.5v574h268v-574q0 -86 61.5 -147.5t147.5 -61.5q84 0 145.5 61.5t61.5 147.5v574h268v-1051zM391 1130l-92 160l264 152h51l265 -152l-93 -160l-198 113z" />
<glyph unicode="&#xfc;" horiz-adv-x="1208" d="M1065 0h-268v47q-100 -47 -207 -47q-199 0 -338 139.5t-139 337.5v574h268v-574q0 -86 61.5 -147.5t147.5 -61.5q84 0 145.5 61.5t61.5 147.5v574h268v-1051zM909 1110h-270v330h270v-330zM539 1110h-269v330h269v-330z" />
<glyph unicode="&#xfd;" horiz-adv-x="1187" d="M1178 1051l-633 -1440h-293l194 442l-436 998h293l291 -662l289 662h295zM477 1128l-92 160l264 152l92 -160z" />
<glyph unicode="&#xfe;" horiz-adv-x="1187" d="M1106 573v-96q0 -199 -139.5 -338t-335.5 -139q-111 0 -209 47v-438h-268v1833h268v-438q98 47 209 47q197 0 336 -139.5t139 -338.5zM838 477v96q0 86 -60.5 147.5t-146.5 61.5t-147.5 -61.5t-61.5 -147.5v-96q0 -86 61.5 -147.5t147.5 -61.5t146.5 61.5t60.5 147.5z " />
<glyph unicode="&#xff;" horiz-adv-x="1132" d="M893 1112h-268v330h268v-330zM524 1112h-270v330h270v-330zM1112 1051l-625 -1442h-292l227 520l-402 922h293l254 -584l252 584h293z" />
<glyph unicode="&#x152;" horiz-adv-x="2068" d="M1946 0h-1051v68q-117 -68 -258 -68q-217 0 -370.5 153.5t-153.5 370.5v391q0 217 153.5 372t370.5 155q141 0 258 -68v68h1051v-268h-783v-320h783v-268h-783v-318h783v-268zM895 524v391q0 106 -76 182.5t-182.5 76.5t-181 -76t-74.5 -183v-391q0 -104 74.5 -180 t181 -76t182.5 76t76 180z" />
<glyph unicode="&#x153;" horiz-adv-x="1800" d="M1718 573v-184h-665q25 -55 76 -88t114 -33q98 0 162 78l211 -168q-145 -178 -373 -178q-203 0 -342 143q-143 -143 -342 -143t-338 139.5t-139 335.5v98q0 197 139 336.5t338 139.5t342 -144q139 143 342 144q197 0 336 -139.5t139 -336.5zM1432 659q-25 55 -76 88 t-113 33q-63 0 -114.5 -32.5t-75.5 -88.5h379zM766 475v98q0 86 -60.5 146.5t-146.5 60.5t-147.5 -60.5t-61.5 -146.5v-98q0 -86 61.5 -146.5t147.5 -60.5t146.5 60.5t60.5 146.5z" />
<glyph unicode="&#x178;" horiz-adv-x="1327" d="M971 1573h-271v330h271v-330zM600 1573h-268v330h268v-330zM1307 1442l-508 -762v-680h-269v680l-510 762h324l320 -479l319 479h324z" />
<glyph unicode="&#x2c6;" horiz-adv-x="681" d="M143 1130l-92 160l264 152h52l264 -152l-92 -160l-199 113z" />
<glyph unicode="&#x2dc;" horiz-adv-x="954" d="M123 1118v90q0 96 66.5 164t162.5 68q53 0 97.5 -21.5t68 -47t47 -47t41.5 -21.5q20 0 33.5 13t13.5 32v92h185v-92q0 -94 -68 -162t-164 -68q-68 0 -119 35t-81.5 68.5t-53.5 33.5q-18 0 -31.5 -13t-13.5 -34v-90h-184z" />
<glyph unicode="&#x2000;" horiz-adv-x="950" />
<glyph unicode="&#x2001;" horiz-adv-x="1902" />
<glyph unicode="&#x2002;" horiz-adv-x="950" />
<glyph unicode="&#x2003;" horiz-adv-x="1902" />
<glyph unicode="&#x2004;" horiz-adv-x="632" />
<glyph unicode="&#x2005;" horiz-adv-x="475" />
<glyph unicode="&#x2006;" horiz-adv-x="315" />
<glyph unicode="&#x2007;" horiz-adv-x="315" />
<glyph unicode="&#x2008;" horiz-adv-x="237" />
<glyph unicode="&#x2009;" horiz-adv-x="378" />
<glyph unicode="&#x200a;" horiz-adv-x="104" />
<glyph unicode="&#x2010;" horiz-adv-x="706" d="M614 391h-522v268h522v-268z" />
<glyph unicode="&#x2011;" horiz-adv-x="706" d="M614 391h-522v268h522v-268z" />
<glyph unicode="&#x2012;" horiz-adv-x="706" d="M614 391h-522v268h522v-268z" />
<glyph unicode="&#x2013;" horiz-adv-x="1136" d="M1044 391h-952v268h952v-268z" />
<glyph unicode="&#x2014;" horiz-adv-x="2015" d="M1923 391h-1831v268h1831v-268z" />
<glyph unicode="&#x2018;" horiz-adv-x="452" d="M360 850h-268v330q0 109 78 185.5t190 76.5v-135q-57 0 -95 -37t-38 -90h133v-330z" />
<glyph unicode="&#x2019;" horiz-adv-x="452" d="M360 1442v-330q0 -109 -77.5 -185.5t-190.5 -76.5v133q57 0 96 38t39 91h-135v330h268z" />
<glyph unicode="&#x201a;" horiz-adv-x="493" d="M381 330v-330q0 -109 -78 -185.5t-190 -76.5v133q57 0 96 38t39 91h-135v330h268z" />
<glyph unicode="&#x201c;" horiz-adv-x="833" d="M721 850h-268v330q0 109 77.5 185.5t190.5 76.5v-135q-57 0 -95 -37t-38 -90h133v-330zM381 850h-268v330q0 109 77.5 185.5t190.5 76.5v-135q-57 0 -95 -37t-38 -90h133v-330z" />
<glyph unicode="&#x201d;" horiz-adv-x="833" d="M113 1442h268v-330q0 -109 -78 -185.5t-190 -76.5v135q57 0 95 37t38 90h-133v330zM453 1442h268v-330q0 -109 -78 -185.5t-190 -76.5v135q57 0 95 37t38 90h-133v330z" />
<glyph unicode="&#x201e;" horiz-adv-x="833" d="M113 330h268v-330q0 -109 -78 -185.5t-190 -76.5v135q57 0 95 37t38 90h-133v330zM453 330h268v-330q0 -109 -78 -185.5t-190 -76.5v135q57 0 95 37t38 90h-133v330z" />
<glyph unicode="&#x2022;" horiz-adv-x="882" d="M791 709v-17q0 -141 -100.5 -240.5t-241.5 -99.5h-15q-141 0 -241.5 99.5t-100.5 240.5v17q0 141 100.5 241.5t241.5 100.5h15q141 0 241.5 -100.5t100.5 -241.5z" />
<glyph unicode="&#x2026;" horiz-adv-x="1570" d="M1456 0h-268v330h268v-330zM920 0h-269v330h269v-330zM381 0h-268v330h268v-330z" />
<glyph unicode="&#x202f;" horiz-adv-x="378" />
<glyph unicode="&#x2039;" horiz-adv-x="847" d="M807 0h-358l-388 436v176l388 437h358l-465 -525z" />
<glyph unicode="&#x203a;" horiz-adv-x="847" d="M786 436l-387 -436h-358l465 524l-465 525h358l387 -437v-176z" />
<glyph unicode="&#x205f;" horiz-adv-x="475" />
<glyph unicode="&#x20ac;" horiz-adv-x="1300" d="M1270 1178l-234 -134q-76 127 -223 127q-143 0 -217 -120h217v-269h-256v-123h256v-268h-217q76 -123 217 -123q150 0 223 129l232 -135q-70 -119 -191 -190.5t-264 -71.5q-180 0 -321.5 110.5t-186.5 280.5h-274v268h258v123h-258v269h274q45 170 186.5 280.5 t321.5 110.5q143 0 265 -71.5t192 -192.5z" />
<glyph unicode="&#x2122;" horiz-adv-x="802" d="M690 1051h-74v180l-69 -180h-68l-71 180v-180h-72v391h70l106 -287l109 287h69v-391zM315 1368h-106v-317h-72v317h-106v74h284v-74z" />
<glyph unicode="&#xe000;" horiz-adv-x="1050" d="M0 1050h1050v-1050h-1050v1050z" />
<glyph unicode="&#xfb01;" horiz-adv-x="1323" d="M1169 0h-270v782h-412v-782h-268v782h-229v269h229v61q0 135 96.5 232.5t233.5 97.5h166v-268h-135q-92 0 -93 -62v-61h682v-1051zM1169 1110h-270v332h270v-332z" />
<glyph unicode="&#xfb02;" horiz-adv-x="1320" d="M715 782h-228v-782h-268v782h-229v269h229v61q0 135 96.5 232.5t233.5 97.5h618v-1442h-268v1174h-319q-92 0 -93 -62v-61h228v-269z" />
<glyph unicode="&#xfb03;" horiz-adv-x="2066" d="M1913 1110h-268v332h268v-332zM1913 0h-268v1051h268v-1051zM1460 782h-228v-782h-268v782h-229v269h229v61q0 135 96.5 232.5t233.5 97.5h166v-268h-135q-92 0 -93 -62v-61h228v-269zM715 782h-228v-782h-268v782h-229v269h229v61q0 135 96.5 232.5t233.5 97.5h166v-268 h-135q-92 0 -93 -62v-61h228v-269z" />
<glyph unicode="&#xfb04;" horiz-adv-x="2045" d="M1903 0h-269v1442h269v-1442zM1460 782h-228v-782h-268v782h-229v269h229v61q0 135 96.5 232.5t233.5 97.5h166v-268h-135q-92 0 -93 -62v-61h228v-269zM715 782h-228v-782h-268v782h-229v269h229v61q0 135 96.5 232.5t233.5 97.5h166v-268h-135q-92 0 -93 -62v-61h228 v-269z" />
<glyph horiz-adv-x="0" />
</font>
</defs>
</svg>
